<?xml version="1.0" ?><!DOCTYPE svg  PUBLIC '-//W3C//DTD SVG 1.1//EN'  'http://www.w3.org/Graphics/SVG/1.1/DTD/svg11.dtd'><svg enable-background="new 0 0 24 24" height="24px" id="Layer_1" version="1.1" viewBox="0 0 24 24" width="24px" xml:space="preserve" xmlns="http://www.w3.org/2000/svg" xmlns:xlink="http://www.w3.org/1999/xlink"><g><path d="M9,21c0,1.7,1.3,3,3,3s3-1.3,3-3s-1.3-3-3-3S9,19.3,9,21z M12,20c0.6,0,1,0.4,1,1s-0.4,1-1,1s-1-0.4-1-1S11.4,20,12,20z"/><path d="M12,0C8.1,0,5,3.1,5,7c0,1.7,1.3,3,3,3s3-1.3,3-3c0-0.6,0.4-1,1-1s1,0.4,1,1c0,0.3-0.1,0.5-0.3,0.7l-2.8,3.2   C9.3,11.4,9,12.2,9,13v2c0,1.7,1.3,3,3,3s3-1.3,3-3v-1c0-0.3,0.1-0.5,0.3-0.7l1.1-0.9C18,11.1,19,9.2,19,7C19,3.1,15.9,0,12,0z    M15,11L15,11L15,11L15,11l-1.1,0.9C13.3,12.4,13,13.2,13,14v1c0,0.6-0.4,1-1,1s-1-0.4-1-1v-2c0-0.3,0.1-0.5,0.3-0.7l2.8-3.2   C14.7,8.6,15,7.8,15,7c0-1.7-1.3-3-3-3S9,5.3,9,7c0,0.6-0.4,1-1,1S7,7.6,7,7c0-2.8,2.2-5,5-5s5,2.2,5,5C17,8.6,16.2,10.1,15,11z"/></g></svg>